<svg viewBox="0 0 4217 1116" fill="none" xmlns="http://www.w3.org/2000/svg">
<g clip-path="url(#clip0_8_1869)">
<path d="M1049.4 221V896H872.1V287.6L911.7 292.1L650.7 896H461.7L199.8 293.9L240.3 289.4V896H63V221H351L593.1 800.6H521.1L761.4 221H1049.4ZM1619.59 896L1596.19 710.6L1620.49 639.5L1596.19 568.4L1619.59 382.1H1810.39L1777.99 638.6L1810.39 896H1619.59ZM1662.79 639.5C1654.39 693.5 1637.59 740.9 1612.39 781.7C1587.79 822.5 1556.29 854.3 1517.89 877.1C1480.09 899.3 1436.89 910.4 1388.29 910.4C1337.89 910.4 1293.49 899.3 1255.09 877.1C1217.29 854.3 1187.59 822.5 1165.99 781.7C1144.39 740.3 1133.59 692.9 1133.59 639.5C1133.59 584.9 1144.39 537.2 1165.99 496.4C1187.59 455.6 1217.29 423.8 1255.09 401C1293.49 378.2 1337.89 366.8 1388.29 366.8C1436.89 366.8 1480.09 378.2 1517.89 401C1556.29 423.2 1588.09 454.7 1613.29 495.5C1638.49 535.7 1654.99 583.7 1662.79 639.5ZM1319.89 639.5C1319.89 664.7 1324.99 687.2 1335.19 707C1345.99 726.8 1360.69 742.4 1379.29 753.8C1397.89 764.6 1419.19 770 1443.19 770C1468.39 770 1492.09 764.6 1514.29 753.8C1536.49 742.4 1555.99 726.8 1572.79 707C1589.59 687.2 1602.19 664.7 1610.59 639.5C1602.19 613.7 1589.59 590.9 1572.79 571.1C1555.99 551.3 1536.49 535.7 1514.29 524.3C1492.09 512.9 1468.39 507.2 1443.19 507.2C1419.19 507.2 1397.89 512.9 1379.29 524.3C1360.69 535.7 1345.99 551.3 1335.19 571.1C1324.99 590.9 1319.89 613.7 1319.89 639.5ZM2492.78 728.6C2492.78 768.2 2480.78 801.5 2456.78 828.5C2432.78 855.5 2398.58 875.9 2354.18 889.7C2309.78 903.5 2256.38 910.4 2193.98 910.4C2129.78 910.4 2073.38 902.6 2024.78 887C1976.78 871.4 1939.28 849.5 1912.28 821.3C1885.28 793.1 1870.88 760.4 1869.08 723.2H2055.38C2059.58 737 2067.68 749 2079.68 759.2C2092.28 768.8 2108.78 776.3 2129.18 781.7C2149.58 786.5 2173.88 788.9 2202.08 788.9C2238.68 788.9 2266.28 785.3 2284.88 778.1C2304.08 770.9 2313.68 760.1 2313.68 745.7C2313.68 734.3 2306.48 725.9 2292.08 720.5C2277.68 714.5 2253.08 710 2218.28 707L2127.38 699.8C2066.78 695.6 2018.48 686.6 1982.48 672.8C1947.08 658.4 1921.58 640.1 1905.98 617.9C1890.38 595.1 1882.58 569.3 1882.58 540.5C1882.58 501.5 1894.58 469.4 1918.58 444.2C1943.18 418.4 1977.08 399.2 2020.28 386.6C2064.08 373.4 2115.08 366.8 2173.28 366.8C2230.88 366.8 2282.18 374.3 2327.18 389.3C2372.18 404.3 2408.18 425.3 2435.18 452.3C2462.18 478.7 2477.78 509.9 2481.98 545.9H2295.68C2292.68 534.5 2286.08 524.3 2275.88 515.3C2265.68 505.7 2251.58 497.9 2233.58 491.9C2215.58 485.9 2192.48 482.9 2164.28 482.9C2131.28 482.9 2106.08 486.5 2088.68 493.7C2071.88 500.9 2063.48 511.1 2063.48 524.3C2063.48 534.5 2068.58 542.6 2078.78 548.6C2089.58 554.6 2109.38 558.8 2138.18 561.2L2257.88 570.2C2317.28 573.8 2364.08 582.5 2398.28 596.3C2432.48 609.5 2456.78 627.2 2471.18 649.4C2485.58 671.6 2492.78 698 2492.78 728.6ZM2570.22 203H2754.72V896H2570.22V203ZM2942.82 366.8C2992.62 366.8 3034.62 376.7 3068.82 396.5C3103.62 416.3 3130.32 444.2 3148.92 480.2C3167.52 516.2 3176.82 558.8 3176.82 608V896H2992.32V635C2992.32 596.6 2982.42 567.2 2962.62 546.8C2943.42 526.4 2915.52 516.2 2878.92 516.2C2853.72 516.2 2831.52 521.6 2812.32 532.4C2793.72 543.2 2779.32 558.5 2769.12 578.3C2759.52 598.1 2754.72 621.5 2754.72 648.5L2697.12 618.8C2704.32 564.2 2719.62 518.3 2743.02 481.1C2766.42 443.3 2795.22 414.8 2829.42 395.6C2864.22 376.4 2902.02 366.8 2942.82 366.8ZM3271.59 374L3364.29 392L3456.09 374V896H3271.59V374ZM3363.39 331.7C3331.59 331.7 3305.79 323.9 3285.99 308.3C3266.19 292.1 3256.29 270.2 3256.29 242.6C3256.29 215.6 3266.19 194 3285.99 177.8C3305.79 161.6 3331.59 153.5 3363.39 153.5C3396.39 153.5 3422.49 161.6 3441.69 177.8C3461.49 194 3471.39 215.6 3471.39 242.6C3471.39 270.2 3461.49 292.1 3441.69 308.3C3422.49 323.9 3396.39 331.7 3363.39 331.7ZM3532.94 382.1H3717.44L3750.74 587.3V896H3567.14V559.4L3532.94 382.1ZM3939.74 366.8C3988.94 366.8 4030.94 376.7 4065.74 396.5C4100.54 416.3 4126.94 444.2 4144.94 480.2C4163.54 516.2 4172.84 558.8 4172.84 608V896H3989.24V635C3989.24 596.6 3979.34 567.2 3959.54 546.8C3940.34 526.4 3912.44 516.2 3875.84 516.2C3850.64 516.2 3828.44 521.6 3809.24 532.4C3790.64 543.2 3776.24 558.5 3766.04 578.3C3755.84 598.1 3750.74 621.5 3750.74 648.5L3694.04 618.8C3701.24 564.2 3716.54 518.3 3739.94 481.1C3763.34 443.3 3792.14 414.8 3826.34 395.6C3860.54 376.4 3898.34 366.8 3939.74 366.8Z" fill="#0ACF83"/>
</g>
<defs>
<clipPath id="clip0_8_1869">
<rect width="4217" height="1116" fill="white"/>
</clipPath>
</defs>
</svg>
