<svg viewBox="0 0 4217 1116" fill="none" xmlns="http://www.w3.org/2000/svg">
<g clip-path="url(#clip0_10_2277)">
<path d="M1048.4 221V896H871.1V287.6L910.7 292.1L649.7 896H460.7L198.8 293.9L239.3 289.4V896H62V221H350L592.1 800.6H520.1L760.4 221H1048.4ZM1618.59 896L1595.19 710.6L1619.49 639.5L1595.19 568.4L1618.59 382.1H1809.39L1776.99 638.6L1809.39 896H1618.59ZM1661.79 639.5C1653.39 693.5 1636.59 740.9 1611.39 781.7C1586.79 822.5 1555.29 854.3 1516.89 877.1C1479.09 899.3 1435.89 910.4 1387.29 910.4C1336.89 910.4 1292.49 899.3 1254.09 877.1C1216.29 854.3 1186.59 822.5 1164.99 781.7C1143.39 740.3 1132.59 692.9 1132.59 639.5C1132.59 584.9 1143.39 537.2 1164.99 496.4C1186.59 455.6 1216.29 423.8 1254.09 401C1292.49 378.2 1336.89 366.8 1387.29 366.8C1435.89 366.8 1479.09 378.2 1516.89 401C1555.29 423.2 1587.09 454.7 1612.29 495.5C1637.49 535.7 1653.99 583.7 1661.79 639.5ZM1318.89 639.5C1318.89 664.7 1323.99 687.2 1334.19 707C1344.99 726.8 1359.69 742.4 1378.29 753.8C1396.89 764.6 1418.19 770 1442.19 770C1467.39 770 1491.09 764.6 1513.29 753.8C1535.49 742.4 1554.99 726.8 1571.79 707C1588.59 687.2 1601.19 664.7 1609.59 639.5C1601.19 613.7 1588.59 590.9 1571.79 571.1C1554.99 551.3 1535.49 535.7 1513.29 524.3C1491.09 512.9 1467.39 507.2 1442.19 507.2C1418.19 507.2 1396.89 512.9 1378.29 524.3C1359.69 535.7 1344.99 551.3 1334.19 571.1C1323.99 590.9 1318.89 613.7 1318.89 639.5ZM2491.78 728.6C2491.78 768.2 2479.78 801.5 2455.78 828.5C2431.78 855.5 2397.58 875.9 2353.18 889.7C2308.78 903.5 2255.38 910.4 2192.98 910.4C2128.78 910.4 2072.38 902.6 2023.78 887C1975.78 871.4 1938.28 849.5 1911.28 821.3C1884.28 793.1 1869.88 760.4 1868.08 723.2H2054.38C2058.58 737 2066.68 749 2078.68 759.2C2091.28 768.8 2107.78 776.3 2128.18 781.7C2148.58 786.5 2172.88 788.9 2201.08 788.9C2237.68 788.9 2265.28 785.3 2283.88 778.1C2303.08 770.9 2312.68 760.1 2312.68 745.7C2312.68 734.3 2305.48 725.9 2291.08 720.5C2276.68 714.5 2252.08 710 2217.28 707L2126.38 699.8C2065.78 695.6 2017.48 686.6 1981.48 672.8C1946.08 658.4 1920.58 640.1 1904.98 617.9C1889.38 595.1 1881.58 569.3 1881.58 540.5C1881.58 501.5 1893.58 469.4 1917.58 444.2C1942.18 418.4 1976.08 399.2 2019.28 386.6C2063.08 373.4 2114.08 366.8 2172.28 366.8C2229.88 366.8 2281.18 374.3 2326.18 389.3C2371.18 404.3 2407.18 425.3 2434.18 452.3C2461.18 478.7 2476.78 509.9 2480.98 545.9H2294.68C2291.68 534.5 2285.08 524.3 2274.88 515.3C2264.68 505.7 2250.58 497.9 2232.58 491.9C2214.58 485.9 2191.48 482.9 2163.28 482.9C2130.28 482.9 2105.08 486.5 2087.68 493.7C2070.88 500.9 2062.48 511.1 2062.48 524.3C2062.48 534.5 2067.58 542.6 2077.78 548.6C2088.58 554.6 2108.38 558.8 2137.18 561.2L2256.88 570.2C2316.28 573.8 2363.08 582.5 2397.28 596.3C2431.48 609.5 2455.78 627.2 2470.18 649.4C2484.58 671.6 2491.78 698 2491.78 728.6ZM2569.22 203H2753.72V896H2569.22V203ZM2941.82 366.8C2991.62 366.8 3033.62 376.7 3067.82 396.5C3102.62 416.3 3129.32 444.2 3147.92 480.2C3166.52 516.2 3175.82 558.8 3175.82 608V896H2991.32V635C2991.32 596.6 2981.42 567.2 2961.62 546.8C2942.42 526.4 2914.52 516.2 2877.92 516.2C2852.72 516.2 2830.52 521.6 2811.32 532.4C2792.72 543.2 2778.32 558.5 2768.12 578.3C2758.52 598.1 2753.72 621.5 2753.72 648.5L2696.12 618.8C2703.32 564.2 2718.62 518.3 2742.02 481.1C2765.42 443.3 2794.22 414.8 2828.42 395.6C2863.22 376.4 2901.02 366.8 2941.82 366.8ZM3270.59 374L3363.29 392L3455.09 374V896H3270.59V374ZM3362.39 331.7C3330.59 331.7 3304.79 323.9 3284.99 308.3C3265.19 292.1 3255.29 270.2 3255.29 242.6C3255.29 215.6 3265.19 194 3284.99 177.8C3304.79 161.6 3330.59 153.5 3362.39 153.5C3395.39 153.5 3421.49 161.6 3440.69 177.8C3460.49 194 3470.39 215.6 3470.39 242.6C3470.39 270.2 3460.49 292.1 3440.69 308.3C3421.49 323.9 3395.39 331.7 3362.39 331.7ZM3531.94 382.1H3716.44L3749.74 587.3V896H3566.14V559.4L3531.94 382.1ZM3938.74 366.8C3987.94 366.8 4029.94 376.7 4064.74 396.5C4099.54 416.3 4125.94 444.2 4143.94 480.2C4162.54 516.2 4171.84 558.8 4171.84 608V896H3988.24V635C3988.24 596.6 3978.34 567.2 3958.54 546.8C3939.34 526.4 3911.44 516.2 3874.84 516.2C3849.64 516.2 3827.44 521.6 3808.24 532.4C3789.64 543.2 3775.24 558.5 3765.04 578.3C3754.84 598.1 3749.74 621.5 3749.74 648.5L3693.04 618.8C3700.24 564.2 3715.54 518.3 3738.94 481.1C3762.34 443.3 3791.14 414.8 3825.34 395.6C3859.54 376.4 3897.34 366.8 3938.74 366.8Z" fill="white"/>
</g>
<defs>
<clipPath id="clip0_10_2277">
<rect width="4217" height="1116" fill="white"/>
</clipPath>
</defs>
</svg>
